<?xml version="1.0" standalone="no"?>
<svg xmlns="http://www.w3.org/2000/svg" viewBox="0 0 174.165 36" width="174.165" height="36"><g fill="#f1333f" color="#f1333f" transform="translate(0 3.9999999999999982) scale(0.2800001)"><svg width="100.0" height="100.0" x="0.0" y="0.0" viewBox="0 0 100 100"><g><path d="M50.2,78.1L22.2,22h56.1L50.2,78.1z M30.3,27l20,39.9l20-39.9H30.3z"></path></g></svg></g><path fill="#353434" fill-rule="nonzero" d="M0 18.28L0 16.80L1.91 16.48L1.91 7.42L0 7.09L0 5.60L3.97 5.60L4.14 7.49Q4.77 6.48 5.72 5.92Q6.68 5.37 7.90 5.37L7.90 5.37Q9.95 5.37 11.07 6.57Q12.20 7.77 12.20 10.28L12.20 10.28L12.20 16.48L14.11 16.80L14.11 18.28L7.98 18.28L7.98 16.80L9.89 16.48L9.89 10.32Q9.89 8.65 9.23 7.95Q8.57 7.24 7.21 7.24L7.21 7.24Q6.21 7.24 5.44 7.72Q4.68 8.20 4.22 9.04L4.22 9.04L4.22 16.48L6.13 16.80L6.13 18.28L0 18.28ZM27.08 18.28L24.06 18.28Q23.95 17.77 23.89 17.36Q23.84 16.95 23.81 16.54L23.81 16.54Q23.14 17.39 22.14 17.96Q21.14 18.53 20.00 18.53L20.00 18.53Q18.02 18.53 16.99 17.56Q15.96 16.59 15.96 14.84L15.96 14.84Q15.96 13.03 17.42 12.05Q18.88 11.07 21.42 11.07L21.42 11.07L23.80 11.07L23.80 9.60Q23.80 8.48 23.10 7.83Q22.39 7.18 21.14 7.18L21.14 7.18Q20.27 7.18 19.61 7.41Q18.95 7.63 18.54 8.02L18.54 8.02L18.29 9.35L16.51 9.35L16.51 6.89Q17.38 6.20 18.61 5.78Q19.84 5.37 21.28 5.37L21.28 5.37Q23.44 5.37 24.77 6.47Q26.11 7.57 26.11 9.62L26.11 9.62L26.11 15.73Q26.11 15.97 26.12 16.21Q26.12 16.44 26.14 16.68L26.14 16.68L27.08 16.80L27.08 18.28ZM20.34 16.59L20.34 16.59Q21.49 16.59 22.44 16.04Q23.39 15.49 23.80 14.72L23.80 14.72L23.80 12.63L21.34 12.63Q19.92 12.63 19.10 13.29Q18.27 13.95 18.27 14.88L18.27 14.88Q18.27 15.71 18.79 16.15Q19.30 16.59 20.34 16.59ZM40.61 12.18L40.61 12.42Q40.61 15.16 39.29 16.85Q37.97 18.53 35.66 18.53L35.66 18.53Q34.42 18.53 33.50 18.05Q32.59 17.58 31.98 16.65L31.98 16.65L31.77 18.28L29.78 18.28L29.78 1.82L27.87 1.49L27.87 0L32.09 0L32.09 7.10Q32.68 6.26 33.57 5.81Q34.45 5.37 35.64 5.37L35.64 5.37Q37.98 5.37 39.29 7.24Q40.61 9.12 40.61 12.18L40.61 12.18ZM38.29 12.42L38.29 12.18Q38.29 9.98 37.49 8.61Q36.69 7.24 35.05 7.24L35.05 7.24Q33.98 7.24 33.25 7.76Q32.52 8.27 32.09 9.14L32.09 9.14L32.09 14.74Q32.52 15.62 33.26 16.14Q34.01 16.65 35.07 16.65L35.07 16.65Q36.70 16.65 37.49 15.49Q38.29 14.33 38.29 12.42L38.29 12.42ZM44.38 1.82L42.47 1.49L42.47 0L46.69 0L46.69 16.48L48.60 16.80L48.60 18.28L42.47 18.28L42.47 16.80L44.38 16.48L44.38 1.82ZM61.64 18.28L58.62 18.28Q58.51 17.77 58.45 17.36Q58.39 16.95 58.37 16.54L58.37 16.54Q57.70 17.39 56.70 17.96Q55.70 18.53 54.56 18.53L54.56 18.53Q52.58 18.53 51.55 17.56Q50.52 16.59 50.52 14.84L50.52 14.84Q50.52 13.03 51.98 12.05Q53.44 11.07 55.98 11.07L55.98 11.07L58.36 11.07L58.36 9.60Q58.36 8.48 57.66 7.83Q56.95 7.18 55.70 7.18L55.70 7.18Q54.83 7.18 54.17 7.41Q53.51 7.63 53.10 8.02L53.10 8.02L52.85 9.35L51.07 9.35L51.07 6.89Q51.94 6.20 53.17 5.78Q54.40 5.37 55.84 5.37L55.84 5.37Q58.00 5.37 59.33 6.47Q60.67 7.57 60.67 9.62L60.67 9.62L60.67 15.73Q60.67 15.97 60.67 16.21Q60.68 16.44 60.70 16.68L60.70 16.68L61.64 16.80L61.64 18.28ZM54.90 16.59L54.90 16.59Q56.05 16.59 57 16.04Q57.95 15.49 58.36 14.72L58.36 14.72L58.36 12.63L55.90 12.63Q54.48 12.63 53.65 13.29Q52.83 13.95 52.83 14.88L52.83 14.88Q52.83 15.71 53.34 16.15Q53.86 16.59 54.90 16.59ZM73.88 5.60L73.88 7.09L72.35 7.32L74.96 14.54L75.18 15.46L75.25 15.46L75.47 14.54L78 7.32L76.46 7.09L76.46 5.60L81.36 5.60L81.36 7.09L80.32 7.27L76.07 18.28L74.32 18.28L70.02 7.27L68.98 7.09L68.98 5.60L73.88 5.60ZM82.92 18.28L82.92 16.80L84.83 16.48L84.83 7.42L82.92 7.09L82.92 5.60L87.14 5.60L87.14 16.48L89.05 16.80L89.05 18.28L82.92 18.28ZM87.14 0L87.14 2.36L84.83 2.36L84.83 0L87.14 0ZM100.39 6.79L100.51 9.59L98.78 9.59L98.40 8.06Q97.98 7.66 97.34 7.42Q96.70 7.18 95.89 7.18L95.89 7.18Q94.66 7.18 94.07 7.72Q93.47 8.26 93.47 9.02L93.47 9.02Q93.47 9.77 94.00 10.21Q94.52 10.64 96.14 10.98L96.14 10.98Q98.54 11.50 99.71 12.38Q100.89 13.27 100.89 14.75L100.89 14.75Q100.89 16.44 99.52 17.48Q98.16 18.53 95.95 18.53L95.95 18.53Q94.51 18.53 93.36 18.19Q92.21 17.86 91.31 17.23L91.31 17.23L91.30 14.33L93.04 14.33L93.47 16.03Q93.87 16.39 94.55 16.56Q95.24 16.72 95.95 16.72L95.95 16.72Q97.18 16.72 97.88 16.22Q98.58 15.73 98.58 14.92L98.58 14.92Q98.58 14.16 98.00 13.66Q97.42 13.17 95.80 12.81L95.80 12.81Q93.49 12.30 92.32 11.44Q91.15 10.57 91.15 9.09L91.15 9.09Q91.15 7.55 92.47 6.46Q93.79 5.37 95.89 5.37L95.89 5.37Q97.34 5.37 98.48 5.74Q99.63 6.12 100.39 6.79L100.39 6.79ZM103.04 18.28L103.04 16.80L104.95 16.48L104.95 7.42L103.04 7.09L103.04 5.60L107.26 5.60L107.26 16.48L109.17 16.80L109.17 18.28L103.04 18.28ZM107.26 0L107.26 2.36L104.95 2.36L104.95 0L107.26 0ZM110.94 12.08L110.94 11.82Q110.94 9.01 112.46 7.19Q113.99 5.37 116.60 5.37L116.60 5.37Q119.23 5.37 120.76 7.18Q122.29 9 122.29 11.82L122.29 11.82L122.29 12.08Q122.29 14.92 120.76 16.72Q119.24 18.53 116.63 18.53L116.63 18.53Q113.99 18.53 112.46 16.72Q110.94 14.91 110.94 12.08L110.94 12.08ZM113.25 11.82L113.25 12.08Q113.25 14.10 114.10 15.41Q114.95 16.72 116.63 16.72L116.63 16.72Q118.27 16.72 119.12 15.41Q119.98 14.10 119.98 12.08L119.98 12.08L119.98 11.82Q119.98 9.83 119.12 8.51Q118.27 7.18 116.60 7.18L116.60 7.18Q114.94 7.18 114.09 8.51Q113.25 9.83 113.25 11.82L113.25 11.82ZM124.05 18.28L124.05 16.80L125.96 16.48L125.96 7.42L124.05 7.09L124.05 5.60L128.03 5.60L128.19 7.49Q128.82 6.48 129.78 5.92Q130.73 5.37 131.95 5.37L131.95 5.37Q134.00 5.37 135.13 6.57Q136.25 7.77 136.25 10.28L136.25 10.28L136.25 16.48L138.16 16.80L138.16 18.28L132.04 18.28L132.04 16.80L133.95 16.48L133.95 10.32Q133.95 8.65 133.28 7.95Q132.62 7.24 131.26 7.24L131.26 7.24Q130.27 7.24 129.50 7.72Q128.73 8.20 128.27 9.04L128.27 9.04L128.27 16.48L130.18 16.80L130.18 18.28L124.05 18.28Z" transform="translate(36, 8.86)"></path></svg>